<?xml version="1.0" encoding="UTF-8" standalone="no"?>
<!-- Generator: Adobe Illustrator 16.0.0, SVG Export Plug-In . SVG Version: 6.00 Build 0)  -->

<svg
   xmlns:dc="http://purl.org/dc/elements/1.1/"
   xmlns:cc="http://creativecommons.org/ns#"
   xmlns:rdf="http://www.w3.org/1999/02/22-rdf-syntax-ns#"
   xmlns:svg="http://www.w3.org/2000/svg"
   xmlns="http://www.w3.org/2000/svg"
   xmlns:xlink="http://www.w3.org/1999/xlink"
   xmlns:sodipodi="http://sodipodi.sourceforge.net/DTD/sodipodi-0.dtd"
   xmlns:inkscape="http://www.inkscape.org/namespaces/inkscape"
   version="1.1"
   id="Layer_1"
   x="0px"
   y="0px"
   width="48"
   height="48"
   viewBox="7.727 7.821 47.999999 48"
   enable-background="new 7.727 7.821 46.546 46.452"
   xml:space="preserve"
   inkscape:version="0.91 r13725"
   sodipodi:docname="nautilus-twitter-uploader.svg"><metadata
     id="metadata11"><rdf:RDF><cc:Work
         rdf:about=""><dc:format>image/svg+xml</dc:format><dc:type
           rdf:resource="http://purl.org/dc/dcmitype/StillImage" /><dc:title /></cc:Work></rdf:RDF></metadata><defs
     id="defs9"><radialGradient
       inkscape:collect="always"
       xlink:href="#linearGradient2193"
       id="radialGradient2381"
       gradientUnits="userSpaceOnUse"
       gradientTransform="matrix(-1.406852,-0.02719337,-0.02615301,1.353029,28.40827,13.10321)"
       cx="2.2106946"
       cy="9.6087761"
       fx="1.6693171"
       fy="8.8713007"
       r="12.332547" /><linearGradient
       id="linearGradient2193"><stop
         style="stop-color:#7c2f03;stop-opacity:1"
         offset="0"
         id="stop2195" /><stop
         style="stop-color:#ff9730;stop-opacity:1"
         offset="1"
         id="stop2197" /></linearGradient><linearGradient
       inkscape:collect="always"
       xlink:href="#linearGradient2207"
       id="linearGradient2383"
       gradientUnits="userSpaceOnUse"
       gradientTransform="matrix(0.941299,0,0,0.95119,1.512638,1.012529)"
       x1="9.8042097"
       y1="-2.4229071"
       x2="35.825676"
       y2="37.941383" /><linearGradient
       inkscape:collect="always"
       id="linearGradient2207"><stop
         style="stop-color:#ffffff;stop-opacity:1;"
         offset="0"
         id="stop2209" /><stop
         style="stop-color:white;stop-opacity:0.37642586"
         offset="1"
         id="stop2211" /></linearGradient><linearGradient
       inkscape:collect="always"
       xlink:href="#linearGradient2254"
       id="linearGradient2234"
       gradientUnits="userSpaceOnUse"
       x1="36.589283"
       y1="10.541481"
       x2="25.339285"
       y2="25.987909" /><linearGradient
       inkscape:collect="always"
       id="linearGradient2254"><stop
         style="stop-color:#8c4104;stop-opacity:1"
         offset="0"
         id="stop2256" /><stop
         style="stop-color:#a04e0b;stop-opacity:0;"
         offset="1"
         id="stop2258" /></linearGradient><linearGradient
       inkscape:collect="always"
       xlink:href="#linearGradient2207"
       id="linearGradient2387"
       gradientUnits="userSpaceOnUse"
       x1="26.59787"
       y1="16.85297"
       x2="21.066965"
       y2="-3.1949208" /><filter
       style="color-interpolation-filters:sRGB;"
       inkscape:label="Drop Shadow"
       id="filter4644"><feFlood
         flood-opacity="0.498039"
         flood-color="rgb(0,0,0)"
         result="flood"
         id="feFlood4646" /><feComposite
         in="flood"
         in2="SourceGraphic"
         operator="in"
         result="composite1"
         id="feComposite4648" /><feGaussianBlur
         in="composite1"
         stdDeviation="3"
         result="blur"
         id="feGaussianBlur4650" /><feOffset
         dx="4.1"
         dy="6"
         result="offset"
         id="feOffset4652" /><feComposite
         in="SourceGraphic"
         in2="offset"
         operator="over"
         result="composite2"
         id="feComposite4654" /></filter><filter
       style="color-interpolation-filters:sRGB;"
       inkscape:label="Drop Shadow"
       id="filter4668"><feFlood
         flood-opacity="0.498039"
         flood-color="rgb(0,0,0)"
         result="flood"
         id="feFlood4670" /><feComposite
         in="flood"
         in2="SourceGraphic"
         operator="in"
         result="composite1"
         id="feComposite4672" /><feGaussianBlur
         in="composite1"
         stdDeviation="3"
         result="blur"
         id="feGaussianBlur4674" /><feOffset
         dx="3"
         dy="3"
         result="offset"
         id="feOffset4676" /><feComposite
         in="SourceGraphic"
         in2="offset"
         operator="over"
         result="composite2"
         id="feComposite4678" /></filter></defs><sodipodi:namedview
     pagecolor="#ffffff"
     bordercolor="#666666"
     borderopacity="1"
     objecttolerance="10"
     gridtolerance="10"
     guidetolerance="10"
     inkscape:pageopacity="0"
     inkscape:pageshadow="2"
     inkscape:window-width="1640"
     inkscape:window-height="869"
     id="namedview7"
     showgrid="false"
     inkscape:zoom="5.0805133"
     inkscape:cx="-21.210693"
     inkscape:cy="23.226"
     inkscape:window-x="0"
     inkscape:window-y="27"
     inkscape:window-maximized="0"
     inkscape:current-layer="Layer_1" /><g
     style="display:inline;filter:url(#filter4668)"
     id="g2375"
     transform="matrix(0.86412304,0,0,0.88275446,11.885504,13.252098)"><path
       inkscape:connector-curvature="0"
       sodipodi:nodetypes="cssssssscc"
       id="path1314"
       d="m 24.634088,27.484359 c -0.237945,0.675665 0.182485,1.248618 0.86419,1.61831 1.404127,0.761464 2.926139,-0.167957 3.370392,-1.652367 0.792111,-2.646724 -0.237945,-4.718701 -2.442214,-5.797574 -4.211252,-2.061185 -8.459758,1.46557 -9.919214,5.394366 -2.204269,5.933802 2.216574,12.469422 8.364532,14.0118 9.213857,2.311542 18.11317,-4.565427 20.151807,-13.198127 C 47.953982,15.451859 38.466478,3.253309 26.28729,1.017909 17.470211,-0.60040077 7.180622,2.1474467 0.38712155,8.0646418 1.387121,18.064642 8.1391657,23.5 15.639166,27.5"
       style="fill:url(#radialGradient2381);fill-opacity:1;fill-rule:nonzero;stroke:#582a02;stroke-width:1.09044194;stroke-linecap:round;stroke-linejoin:miter;stroke-miterlimit:4;stroke-dasharray:none;stroke-opacity:1" /><path
       inkscape:connector-curvature="0"
       sodipodi:nodetypes="csssssscc"
       id="path2215"
       d="m 25.736223,28.023796 c 0.5,0.5 1.512374,0.37402 1.985446,-0.717282 0.49156,-1.133951 0.49156,-3.427926 -1.617295,-4.568114 -3.396962,-1.836627 -7.747163,1.045186 -8.906899,5.625967 -1.222154,4.827321 2.993024,10.591009 7.952889,11.668738 C 33.879487,41.929856 41.887182,35.907276 43.928086,27.55413 46.676145,16.306695 38.470015,4.8174055 26.28729,2.1308393 19.114881,0.54916101 8.1020654,2.6702759 1.4892564,8.6040784 2.6261826,17.473464 9.1110152,22.771135 15.758616,26.410962"
       style="opacity:0.49019608;fill:none;fill-opacity:1;fill-rule:nonzero;stroke:url(#linearGradient2383);stroke-width:1.09044194;stroke-linecap:round;stroke-linejoin:miter;stroke-miterlimit:4;stroke-dasharray:none;stroke-opacity:1" /><path
       inkscape:connector-curvature="0"
       style="fill:url(#linearGradient2234);fill-opacity:1;fill-rule:evenodd;stroke:none;stroke-width:0.25pt;stroke-linecap:butt;stroke-linejoin:miter;stroke-opacity:1"
       d="m 21.9375,4.8125 c 1.81466,4.6344652 2.72091,10.188642 0.90625,15.75 C 24.009085,21.170774 25.573272,21.766726 26,22.375 28.258231,14.049247 27.3751,8.5157272 21.9375,4.8125 Z M 11.999998,5.5000005 C 14.999998,9.0000011 19.107723,15.222706 19,21 c 1.381579,-0.337719 2.236609,-0.989612 3.499997,-0.499997 -0.5,-7 -4,-14.0000023 -10.499999,-15.0000025 z M 30.09375,7.59375 c -0.355612,6.185518 -1.356675,10.646785 -3.625,15.28125 0.529306,0.917805 1.312321,1.816802 1.09375,2.84375 -0.03998,0.173226 -0.114611,0.379911 -0.21875,0.5625 -0.006,0.01018 -0.02503,0.02104 -0.03125,0.03125 l -0.6875,2.03125 c -0.02972,0.01142 -0.06608,0.04647 -0.09375,0.0625 -0.0139,0.0079 -0.04809,0.02456 -0.0625,0.03125 l -1.8125,1.40625 c 3.629319,0.463447 12.68534,-2.782392 14.5,-8.34375 -3.678676,2.85274 -6.579357,3.993118 -10.4375,5.5625 2.721989,-1.766889 8.641165,-6.511749 8.1875,-13 -2.499554,4.685136 -5.740175,8.151325 -8.6875,11.15625 2.325033,-3.736538 6.41165,-10.209856 1.875,-17.625 z"
       transform="matrix(1.102135,0,0,1.078873,-0.163946,-2.184653)"
       id="path2225"
       sodipodi:nodetypes="ccccccccccssccsccccccc" /><path
       inkscape:connector-curvature="0"
       sodipodi:nodetypes="ccccsc"
       id="path2234"
       d="M 19.626245,1.2043425 C 12.732887,1.4704151 6.0951254,3.8237042 1,8.2616005 1.1919415,10.181016 4.4488631,17.670647 6.4488631,20.170647 c 11.4999999,3 13.1903029,-21.7047041 36.6903029,-5.204704 -3.5,-6.5000001 -7.73459,-10.8978288 -15.23459,-12.8978288 C 25.694597,1.4787865 21.924031,1.1156516 19.626245,1.2043425 Z"
       style="opacity:0.57254902;fill:url(#linearGradient2387);fill-opacity:1;fill-rule:nonzero;stroke:none;stroke-width:0.99999962pt;stroke-linecap:butt;stroke-linejoin:miter;stroke-opacity:1" /></g><g
     id="g4640"
     transform="matrix(0.25,0,0,0.25,55.790199,38.814877)"
     style="filter:url(#filter4644)"><path
       sodipodi:nodetypes="scccccccccscccccccccscccccccccscccccccccs"
       id="path58241"
       d="m -45.810897,-17.640186 c -2.7392,0 -5.4152,0.28719 -8,0.8125 l 0,6.1875 c -3.4748,0.8388701 -6.7198,2.1846001 -9.6875,4.0000001 l -4.375,-4.3750001 c -2.2426,1.4861001 -4.2923,3.2298001 -6.1875,5.1250001 -1.8953,1.8952 -3.6389,3.9449 -5.125,6.18750005 l 4.375,4.37499995 c -1.8154,2.9677 -3.1611,6.2125999 -4,9.6874999 l -6.1875,0 c -0.5253,2.5848 -0.8125,5.2608 -0.8125,8 0,2.7392 0.2872,5.4152 0.8125,8 l 6.1875,0 c 0.83887,3.4748 2.1846,6.7198 4,9.6875 l -4.375,4.375 c 1.4861,2.2426 3.2297,4.2923 5.125,6.1875 1.8952,1.8952 3.9449,3.6389 6.1875,5.125 l 4.375,-4.375 c 2.9677,1.8154 6.2126,3.1611 9.6875,4 l 0,6.1875 c 2.5848,0.52528 5.2608,0.8125 8,0.8125 2.7391,0 5.4151,-0.28722 8,-0.8125 l 0,-6.1875 c 3.4748,-0.83889 6.7198,-2.1846 9.6875,-4 l 4.375,4.375 c 2.2426,-1.4861 4.2922,-3.2298 6.1875,-5.125 1.8952,-1.8952 3.6389,-3.9449 5.125,-6.1875 l -4.375,-4.375 c 1.8154,-2.9677 3.1611,-6.2126 4,-9.6875 l 6.1874997,0 c 0.5253,-2.5848 0.8125,-5.2608 0.8125,-8 0,-2.7392 -0.2872,-5.4152 -0.8125,-8 l -6.1874997,0 c -0.8389,-3.4748 -2.1846,-6.7197999 -4,-9.6874999 l 4.375,-4.37499995 c -1.4861,-2.24260005 -3.2298,-4.29230005 -5.125,-6.18750005 -1.8953,-1.8952 -3.9449,-3.6389 -6.1875,-5.1250001 l -4.375,4.3750001 c -2.9677,-1.8154 -6.2127,-3.1611 -9.6875,-4.0000001 l 0,-6.1875 c -2.5849,-0.52531 -5.2609,-0.8125 -8,-0.8125 z"
       inkscape:connector-curvature="0"
       style="fill:#00acee;fill-opacity:1;stroke:none;stroke-width:2;stroke-linecap:round;stroke-linejoin:round;stroke-dashoffset:162" /><path
       inkscape:connector-curvature="0"
       id="rect3771"
       d="m -37.145292,3.520535 c -1.762975,-0.03222 -3.540098,0.3903776 -5.153326,1.3117565 -2.692219,1.5375265 -4.919085,5.4743705 -4.919085,8.7606565 0,1.385212 -0.383964,1.436782 -4.169511,0.468484 -4.512875,-1.154196 -8.334991,-3.328112 -12.086895,-6.9335673 -1.085637,-1.0432606 -1.93896,-1.6190818 -2.248724,-1.4991504 -0.276901,0.1061357 -0.799696,0.9901875 -1.124362,1.9676338 -0.757079,2.2793078 -0.476847,4.9411969 0.702726,7.2146579 0.479529,0.924375 0.843272,1.782864 0.843272,1.920786 0,0.137922 -0.485279,0.180647 -1.077515,0.0937 l -1.077513,-0.140546 0.234242,1.733393 c 0.268255,2.265063 1.187001,3.961875 3.185693,5.94975 1.131649,1.125711 1.437209,1.639695 1.030665,1.639695 -2.429818,0 0.835296,4.963759 4.216359,6.418235 0.934136,0.401921 1.686545,0.873854 1.686545,1.030665 0,0.28349 -3.147945,1.803851 -4.778541,2.295573 -0.469217,0.14152 -2.061025,0.356049 -3.560481,0.468485 -2.245642,0.168352 -2.762259,0.296607 -2.857754,0.796422 -0.08838,0.462789 0.482835,0.853692 2.38927,1.733393 2.33581,1.078189 5.241343,2.001889 7.636294,2.38927 0.563065,0.09145 2.854231,0.114312 5.10648,0.04685 6.277417,-0.188742 10.928906,-1.852276 15.600526,-5.574964 5.754411,-4.585299 9.553512,-11.862847 10.072413,-19.348401 l 0.187393,-2.717209 2.014484,-2.10818 c 2.43267,-2.5556011 2.601683,-3.3529998 0.655876,-3.0919959 l -1.358604,0.1873941 0.936969,-1.6865433 c 1.310466,-2.3554645 0.803485,-2.7108397 -2.108179,-1.5459981 -1.222677,0.4890228 -2.396796,0.8901193 -2.576664,0.8901193 -0.179853,0 -1.171347,-0.5225297 -2.248725,-1.1712098 -1.628466,-0.9806709 -3.390351,-1.4669331 -5.153328,-1.4991506 z"
       style="fill:#ffffff;fill-opacity:1;stroke:none" /></g></svg>