<?xml version="1.0" encoding="UTF-8" standalone="no"?>
<!-- Generator: Adobe Illustrator 16.0.0, SVG Export Plug-In . SVG Version: 6.00 Build 0)  -->

<svg
   xmlns:dc="http://purl.org/dc/elements/1.1/"
   xmlns:cc="http://creativecommons.org/ns#"
   xmlns:rdf="http://www.w3.org/1999/02/22-rdf-syntax-ns#"
   xmlns:svg="http://www.w3.org/2000/svg"
   xmlns="http://www.w3.org/2000/svg"
   xmlns:sodipodi="http://sodipodi.sourceforge.net/DTD/sodipodi-0.dtd"
   xmlns:inkscape="http://www.inkscape.org/namespaces/inkscape"
   version="1.1"
   id="Layer_1"
   x="0px"
   y="0px"
   width="48"
   height="48"
   viewBox="7.727 7.821 47.999999 48"
   enable-background="new 7.727 7.821 46.546 46.452"
   xml:space="preserve"
   inkscape:version="0.91 r13725"
   sodipodi:docname="nautilus-imgur-uploader.svg"><metadata
     id="metadata11"><rdf:RDF><cc:Work
         rdf:about=""><dc:format>image/svg+xml</dc:format><dc:type
           rdf:resource="http://purl.org/dc/dcmitype/StillImage" /><dc:title></dc:title></cc:Work></rdf:RDF></metadata><defs
     id="defs9" /><sodipodi:namedview
     pagecolor="#ffffff"
     bordercolor="#666666"
     borderopacity="1"
     objecttolerance="10"
     gridtolerance="10"
     guidetolerance="10"
     inkscape:pageopacity="0"
     inkscape:pageshadow="2"
     inkscape:window-width="1640"
     inkscape:window-height="869"
     id="namedview7"
     showgrid="false"
     inkscape:zoom="5.0805133"
     inkscape:cx="23.273001"
     inkscape:cy="23.226"
     inkscape:window-x="0"
     inkscape:window-y="27"
     inkscape:window-maximized="0"
     inkscape:current-layer="Layer_1" /><path
     d="m 49.666,55.046407 -35.781,0 c -3.006,0 -5.4309998,-2.425 -5.4309998,-5.334 l 0,-35.781 c 0,-3.006 2.4239998,-5.3329998 5.3329998,-5.3329998 l 35.781,0 C 52.575,8.5014072 55,10.925407 55,13.834407 l 0,35.781 c 0,3.007 -2.424,5.431 -5.334,5.431"
     id="path3"
     inkscape:connector-curvature="0"
     style="fill:#272727" /><path
     d="m 33.50734,45.574864 c 8.242,-1.066 13.673,-9.115 11.637,-17.26 -1.455,-5.527 -6.207,-9.697 -11.831,-10.279 -8.437,-0.97 -15.806,5.915 -15.418,14.448 0.388,8.146 7.661,14.157 15.71,13.091 l -0.098,0 z"
     id="path5"
     inkscape:connector-curvature="0"
     style="fill:#85bf25" /></svg>